/vscmnt/brussel_pixiu_data/_data_brussel/112/vsc11236/PredSimResults/SUBJ11opt3D/trackIG/worker_05.mot
version=1
nRows=4
nColumns=50
inDegrees=yes
endheader
                time	         pelvis_tilt	         pelvis_list	     pelvis_rotation	           pelvis_tx	           pelvis_ty	           pelvis_tz	       hip_flexion_r	     hip_adduction_r	      hip_rotation_r	        knee_angle_r	       ankle_angle_r	         mtp_angle_r	       hip_flexion_l	     hip_adduction_l	      hip_rotation_l	        knee_angle_l	       ankle_angle_l	         mtp_angle_l	    lumbar_extension	      lumbar_bending	     lumbar_rotation	 ercspn_r/activation	 intobl_r/activation	 extobl_r/activation	    abd_r/activation	    add_r/activation	hamstrings_r/activation	bifemsh_r/activation	glut_max_r/activation	iliopsoas_r/activation	rect_fem_r/activation	  vasti_r/activation	gastroc_r/activation	 soleus_r/activation	tib_ant_r/activation	 ercspn_l/activation	 intobl_l/activation	 extobl_l/activation	    abd_l/activation	    add_l/activation	hamstrings_l/activation	bifemsh_l/activation	glut_max_l/activation	iliopsoas_l/activation	rect_fem_l/activation	  vasti_l/activation	gastroc_l/activation	 soleus_l/activation	tib_ant_l/activation	
          1.42446530	         -2.95285525	         -0.70211423	          5.39492223	          1.42446530	          0.94355721	         -0.00589936	         30.45364639	         -2.17354424	         -3.91220699	         -9.87826003	          1.14232133	          0.25202802	        -13.02052630	         -2.78799494	         -2.88456609	        -12.44766165	         12.65943536	         28.36800030	        -14.48423479	         -2.52015236	         -3.40273363	          0.02286946	          0.22131916	          0.06217495	          0.00999999	          0.18696478	          0.02299211	          0.10655069	          0.07240175	          0.08696366	          0.04052509	          0.01422750	          0.01000000	          0.00999999	          0.39321234	          0.01000003	          0.01000000	          0.01000000	          0.03653376	          0.01331309	          0.01242233	          0.15938995	          0.01694266	          0.05498338	          0.01237408	          0.01000000	          0.12989143	          0.29652798	          0.01237411	
          1.43870996	         -3.08551909	         -0.75014117	          5.44461178	          1.44261226	          0.94153223	         -0.00444276	         30.07467880	         -1.99544633	         -4.04035494	        -10.82397051	          0.64442839	          0.20964433	        -13.58007714	         -3.03848338	         -3.23877232	        -13.13573472	         11.88409632	         30.09620743	        -14.04250137	         -2.01764016	         -3.64197814	          0.01848171	          0.17885666	          0.05024600	          0.03732549	          0.16203829	          0.04563233	          0.08610778	          0.09049689	          0.07027873	          0.03274991	          0.01149780	          0.01237411	          0.01237410	          0.43542041	          0.01000002	          0.00999999	          0.01000031	          0.02952436	          0.01075884	          0.01319278	          0.12880924	          0.01369204	          0.04443422	          0.01000000	          0.01000001	          0.10497033	          0.27614524	          0.01000000	
          1.45295461	         -3.19801704	         -0.80147103	          5.47018436	          1.46105127	          0.93992203	         -0.00290709	         29.68689720	         -1.83622784	         -4.22183504	        -11.81316922	         -0.01045269	          0.20398897	        -13.99239914	         -3.30644071	         -3.59802342	        -14.11944152	         10.93252788	         31.89640491	        -13.58083414	         -1.50561387	         -3.87061168	          0.02597371	          0.14454104	          0.04060575	          0.08204002	          0.20105958	          0.04083364	          0.06958706	          0.10099115	          0.05679498	          0.02646649	          0.02023698	          0.01000000	          0.00999999	          0.50221739	          0.01942289	          0.00999999	          0.01000000	          0.02385978	          0.01000000	          0.01066161	          0.10409578	          0.01106507	          0.03590903	          0.01000018	          0.01000001	          0.08483062	          0.25114222	          0.00999999	
          1.46719926	         -3.28970897	         -0.84359822	          5.46923051	          1.47950958	          0.93891510	         -0.00129533	         29.40318904	         -1.70230514	         -4.46732602	        -12.98933876	         -0.72827676	          0.16203749	        -14.15706982	         -3.58229523	         -3.96364002	        -15.53683660	          9.77888856	         33.76240526	        -13.13252086	         -1.00082361	         -4.08413341	          0.02755169	          0.11680925	          0.03281509	          0.11079294	          0.23158383	          0.04506896	          0.05623603	          0.08337230	          0.04589824	          0.02138860	          0.08026398	          0.01000000	          0.00999999	          0.55003953	          0.05037923	          0.00999999	          0.01000000	          0.01928202	          0.02673521	          0.02098779	          0.08412386	          0.01237402	          0.02901949	          0.01000002	          0.01186711	          0.06855493	          0.22129905	          0.00999999	
